# xmcd
#
# Track frame offsets: 
#        150
#        12019
#        22822
#        37724
#        49511
#        62812
#        75923
#        94912
#        104949
#        115612
#        128383
#        137661
#        148806
#        161755
#        177618
#        189097
#        201486
#
# Disc length: 2856 seconds
#
# Revision: 0
# Processed by: cddbd v1.5PL3 Copyright (c) Steve Scherf et al.
# Submitted via: ExactAudioCopy v0.95a5
#
DISCID=da0b2611
DTITLE=J. J. CALE - J. J. CALE ANTHOLOGY
DYEAR=2002
DGENRE=Blues
TTITLE0=CALL ME THE BREEZE
TTITLE1=AFTER MIDNIGHT
TTITLE2=ANYWAY THE WIND BLOWS
TTITLE3=CRYING
TTITLE4=I GOT THE SAME OLD BLUES
TTITLE5=COCAINE
TTITLE6=DURANGO
TTITLE7=DON´T CRY SISTER
TTITLE8=CARRY ON
TTITLE9=CITY GIRLS
TTITLE10=DEVIL IN DISGUISE
TTITLE11=DOWNTOWN L.A.
TTITLE12=UNEPLOYMENT
TTITLE13=SANTA CRUZ
TTITLE14=NEW ORLEANS
TTITLE15=JAILER
TTITLE16=LONG WAY HOME
EXTD=
EXTT0=
EXTT1=
EXTT2=
EXTT3=
EXTT4=
EXTT5=
EXTT6=
EXTT7=
EXTT8=
EXTT9=
EXTT10=
EXTT11=
EXTT12=
EXTT13=
EXTT14=
EXTT15=
EXTT16=
PLAYORDER=
